<svg xmlns="http://www.w3.org/2000/svg" viewBox="0 0 180 180" width="180" height="180">
  <defs>
    <linearGradient id="bg" x1="0" y1="0" x2="1" y2="1">
      <stop offset="0" stop-color="#0a0a14"/>
      <stop offset="1" stop-color="#161628"/>
    </linearGradient>
    <linearGradient id="leftLobe" x1="0" y1="0" x2="0.5" y2="1">
      <stop offset="0" stop-color="#67e8f9"/>
      <stop offset="0.55" stop-color="#22d3ee"/>
      <stop offset="1" stop-color="#0ea5e9"/>
    </linearGradient>
    <linearGradient id="rightLobe" x1="1" y1="0" x2="0.5" y2="1">
      <stop offset="0" stop-color="#fde047"/>
      <stop offset="0.45" stop-color="#fb923c"/>
      <stop offset="1" stop-color="#fb7185"/>
    </linearGradient>
    <linearGradient id="badge" x1="0" y1="0" x2="1" y2="1">
      <stop offset="0" stop-color="#a78bfa"/>
      <stop offset="1" stop-color="#7c3aed"/>
    </linearGradient>
  </defs>
  <rect width="180" height="180" rx="36" fill="url(#bg)"/>
  <g transform="translate(40,40) scale(1.0)">
    <path d="M50 6 C 32 6, 18 14, 11 28 C 4 42, 6 60, 16 74 C 22 84, 32 92, 44 94 C 48 94, 50 92, 50 88 L 50 12 C 50 8, 49 6, 50 6 Z" fill="url(#leftLobe)"/>
    <path d="M50 6 C 68 6, 82 14, 89 28 C 96 42, 94 60, 84 74 C 78 84, 68 92, 56 94 C 52 94, 50 92, 50 88 L 50 12 C 50 8, 51 6, 50 6 Z" fill="url(#rightLobe)"/>
    <rect x="27" y="32" width="46" height="40" rx="12" ry="12" fill="url(#badge)"/>
    <text x="50" y="60" text-anchor="middle" dominant-baseline="middle" font-family="ui-sans-serif,system-ui,-apple-system,'Segoe UI',Arial,sans-serif" font-size="22" font-weight="900" fill="#ffffff" letter-spacing="-0.5">AI</text>
  </g>
</svg>
